<?xml version="1.0" encoding="UTF-8"?>
<svg xmlns="http://www.w3.org/2000/svg" xmlns:xlink="http://www.w3.org/1999/xlink" viewBox="0 0 24 24" width="24px" height="24px">
<g id="surface1090254">
<path style=" stroke:none;fill-rule:nonzero;fill:rgb(80.000001%,80.000001%,80.000001%);fill-opacity:1;" d="M 12 24 C 5.371094 24 0 18.628906 0 12 C 0 5.371094 5.371094 0 12 0 C 18.628906 0 24 5.371094 24 12 C 24 18.628906 18.628906 24 12 24 Z M 12 24 "/>
<path style="fill:none;stroke-width:14.33333;stroke-linecap:butt;stroke-linejoin:miter;stroke:rgb(0%,0%,0%);stroke-opacity:1;stroke-miterlimit:10;" d="M 38.212891 86 L 133.787109 86 " transform="matrix(0.139535,0,0,0.139535,0,0)"/>
<path style="fill:none;stroke-width:14.33333;stroke-linecap:butt;stroke-linejoin:miter;stroke:rgb(0%,0%,0%);stroke-opacity:1;stroke-miterlimit:10;" d="M 38.212891 57.333333 L 133.787109 57.333333 " transform="matrix(0.139535,0,0,0.139535,0,0)"/>
<path style="fill:none;stroke-width:14.33333;stroke-linecap:butt;stroke-linejoin:miter;stroke:rgb(0%,0%,0%);stroke-opacity:1;stroke-miterlimit:10;" d="M 38.212891 114.666667 L 133.787109 114.666667 " transform="matrix(0.139535,0,0,0.139535,0,0)"/>
<path style="fill:none;stroke-width:14.33333;stroke-linecap:butt;stroke-linejoin:miter;stroke:rgb(0%,0%,0%);stroke-opacity:1;stroke-miterlimit:10;" d="M 38.212891 86 L 133.787109 86 " transform="matrix(0.139535,0,0,0.139535,0,0)"/>
<path style="fill:none;stroke-width:14.33333;stroke-linecap:butt;stroke-linejoin:miter;stroke:rgb(0%,0%,0%);stroke-opacity:1;stroke-miterlimit:10;" d="M 133.787109 86 L 38.212891 86 " transform="matrix(0.139535,0,0,0.139535,0,0)"/>
</g>
</svg>
