<svg xmlns="http://www.w3.org/2000/svg" xmlns:xlink="http://www.w3.org/1999/xlink" width="88" height="88" viewBox="0 0 88 88"><defs><filter id="a" x="0" y="0" width="88" height="88" filterUnits="userSpaceOnUse"><feOffset dy="6" input="SourceAlpha"/><feGaussianBlur stdDeviation="4" result="b"/><feFlood flood-opacity="0.341"/><feComposite operator="in" in2="b"/><feComposite in="SourceGraphic"/></filter></defs><g transform="translate(12 6)"><g transform="translate(-1003 3613)"><g transform="translate(988 -3912)"><circle cx="27" cy="27" r="27" transform="translate(20 304)" fill="#2b2c36"/><path d="M20.707,6.293l-6-6A1,1,0,0,0,13,1V15.284A6.682,6.682,0,0,0,9,14c-3.309,0-6,2.243-6,5s2.691,5,6,5,6-2.243,6-5V3.414l4.293,4.293a1,1,0,0,0,1.414-1.414ZM9,22c-2.206,0-4-1.346-4-3s1.794-3,4-3,4,1.346,4,3S11.206,22,9,22Z" transform="translate(35 319.001)" fill="#f4f5fa" opacity="0.7"/></g></g><g transform="translate(-1219 3613)"><g transform="translate(991 -3910)"><circle cx="27" cy="27" r="27" transform="translate(233 302)" fill="#2b2c36"/><path d="M23,11H13V1a1,1,0,0,0-2,0V11H1a1,1,0,0,0,0,2H11V23a1,1,0,0,0,2,0V13H23a1,1,0,0,0,0-2Z" transform="translate(248 317)" fill="#f4f5fa" opacity="0.7"/></g></g><g transform="translate(-1111 3687)"><g transform="translate(1003 -3984)"><circle cx="27" cy="27" r="27" transform="translate(113 302)" fill="#2b2c36"/><g transform="translate(100 317.001)" opacity="0.7"><path d="M45.707,7.707a1,1,0,0,0,0-1.414l-6-6A1,1,0,0,0,38,1V15.284A6.682,6.682,0,0,0,34,14c-3.309,0-6,2.243-6,5s2.691,5,6,5,6-2.243,6-5V3.414l4.293,4.293A1,1,0,0,0,45.707,7.707ZM34,22c-2.206,0-4-1.346-4-3s1.794-3,4-3,4,1.346,4,3S36.206,22,34,22Z" fill="#f4f5fa"/><path d="M42,11a1,1,0,0,0,1,1h8a1,1,0,0,0,0-2H43A1,1,0,0,0,42,11Z" fill="#f4f5fa"/><path d="M51,14H43a1,1,0,0,0,0,2h8a1,1,0,0,0,0-2Z" fill="#f4f5fa"/><path d="M51,18H43a1,1,0,0,0,0,2h8a1,1,0,0,0,0-2Z" fill="#f4f5fa"/></g></g></g><g transform="translate(5.996 -4)"><g transform="matrix(1, 0, 0, 1, -18, -2)" filter="url(#a)"><g transform="translate(12 6)" fill="#3f4150"><path d="M 32 62.5 C 27.88187026977539 62.5 23.88771057128906 61.69379043579102 20.12848091125488 60.1037712097168 C 16.49674987792969 58.56768035888672 13.23480033874512 56.36830902099609 10.43323993682861 53.5667610168457 C 7.63169002532959 50.76520156860352 5.432320117950439 47.50325012207031 3.896229982376099 43.87152099609375 C 2.306210041046143 40.11228942871094 1.5 36.11812973022461 1.5 32 C 1.5 27.88187026977539 2.306210041046143 23.88771057128906 3.896229982376099 20.12848091125488 C 5.432320117950439 16.49674987792969 7.63169002532959 13.23480033874512 10.43323993682861 10.43323993682861 C 13.23480033874512 7.63169002532959 16.49674987792969 5.432320117950439 20.12848091125488 3.896229982376099 C 23.88771057128906 2.306210041046143 27.88187026977539 1.5 32 1.5 C 36.11812973022461 1.5 40.11228942871094 2.306210041046143 43.87152099609375 3.896229982376099 C 47.50325012207031 5.432320117950439 50.76520156860352 7.63169002532959 53.5667610168457 10.43323993682861 C 56.36830902099609 13.23480033874512 58.56768035888672 16.49674987792969 60.1037712097168 20.12848091125488 C 61.69379043579102 23.88771057128906 62.5 27.88187026977539 62.5 32 C 62.5 36.11812973022461 61.69379043579102 40.11228942871094 60.1037712097168 43.87152099609375 C 58.56768035888672 47.50325012207031 56.36830902099609 50.76520156860352 53.5667610168457 53.5667610168457 C 50.76520156860352 56.36830902099609 47.50325012207031 58.56768035888672 43.87152099609375 60.1037712097168 C 40.11228942871094 61.69379043579102 36.11812973022461 62.5 32 62.5 Z" stroke="none"/><path d="M 32 3 C 28.08369827270508 3 24.2861442565918 3.766345977783203 20.71281051635742 5.277732849121094 C 17.25986480712891 6.738201141357422 14.15817642211914 8.829620361328125 11.49390029907227 11.49390029907227 C 8.829620361328125 14.15817642211914 6.738201141357422 17.25986480712891 5.277732849121094 20.71281051635742 C 3.766345977783203 24.2861442565918 3 28.08369827270508 3 32 C 3 35.91629791259766 3.766345977783203 39.7138557434082 5.277732849121094 43.28718948364258 C 6.738201141357422 46.74013519287109 8.829620361328125 49.84182357788086 11.49390029907227 52.50609970092773 C 14.15817642211914 55.17037963867188 17.25986480712891 57.26179885864258 20.71281051635742 58.72226715087891 C 24.2861442565918 60.2336540222168 28.08369827270508 61 32 61 C 35.91629791259766 61 39.7138557434082 60.2336540222168 43.28718948364258 58.72226715087891 C 46.74013519287109 57.26179885864258 49.84182357788086 55.17037963867188 52.50609970092773 52.50609970092773 C 55.17037963867188 49.84182357788086 57.26179885864258 46.74013519287109 58.72226715087891 43.28718948364258 C 60.2336540222168 39.7138557434082 61 35.91629791259766 61 32 C 61 28.08369827270508 60.2336540222168 24.2861442565918 58.72226715087891 20.71281051635742 C 57.26179885864258 17.25986480712891 55.17037963867188 14.15817642211914 52.50609970092773 11.49390029907227 C 49.84182357788086 8.829620361328125 46.74013519287109 6.738201141357422 43.28718948364258 5.277732849121094 C 39.7138557434082 3.766345977783203 35.91629791259766 3 32 3 M 32 0 C 49.67311096191406 0 64 14.32688903808594 64 32 C 64 49.67311096191406 49.67311096191406 64 32 64 C 14.32688903808594 64 0 49.67311096191406 0 32 C 0 14.32688903808594 14.32688903808594 0 32 0 Z" stroke="none" fill="#505263"/></g></g><g transform="translate(-0.178 9.818)"><path d="M26.182,0A26.182,26.182,0,1,1,7.668,7.668" transform="translate(0)" fill="none" stroke="#02a8f2" stroke-linecap="round" stroke-width="6"/><path d="M659.093,525v23.273l17.455-11.636Zm11.025,13.062-6.274-4.179v8.368l-2.376,1.581v-14.39l10.793,7.2Z" transform="translate(-639.699 -510.455)" fill="#02a8f2"/></g></g></g></svg>